<?xml version="1.0" encoding="utf-8"?>
<!-- Generator: Adobe Illustrator 21.1.0, SVG Export Plug-In . SVG Version: 6.00 Build 0)  -->
<svg version="1.1" id="Слой_1" xmlns="http://www.w3.org/2000/svg" xmlns:xlink="http://www.w3.org/1999/xlink" x="0px" y="0px"
	 viewBox="0 0 24 24" style="enable-background:new 0 0 24 24;" xml:space="preserve">
<style type="text/css">
	.st0{fill:#5D5D63;}
</style>
<g id="CSP">
	<path id="Page-1" class="st0" d="M0,20.5v-17c0-0.1,0-0.1,0-0.2C0.3,1.4,1.5,0,3,0C9,0,15,0,21,0c1.4,0,2.5,1.3,2.9,3
		c0,0.1,0.1,0.3,0.1,0.4l0,17c0,0,0,0.1,0,0.1c-0.2,1.7-1.1,2.9-2.3,3.2C21.1,24,20.5,24,19.9,24C14.3,24,8.6,24,3,24
		c-1.4,0-2.5-1.2-2.9-2.9C0.1,20.9,0,20.7,0,20.5L0,20.5z M8.2,11.7c-0.4,0.5-0.7,1-1.1,1.4l-3.8,5.1C3,18.5,2.9,18.9,3,19.3
		c0.2,0.8,0.8,0.9,1.3,0.4c1.6-2.1,3.2-4.2,4.8-6.3c0.1-0.1,0.1-0.2,0.2-0.3c0.1,0.2,0.2,0.3,0.3,0.4l1.9,2.3c0.4,0.4,0.7,0.4,1.1,0
		c0.7-0.8,1.3-1.6,2-2.4c0.1-0.1,0.1-0.1,0.2-0.2c0.6,0.8,1.2,1.6,1.8,2.4l3.2,4.2c0.2,0.3,0.5,0.4,0.8,0.3c0.6-0.2,0.7-1.1,0.3-1.7
		c-1.1-1.4-2.1-2.8-3.2-4.3c-0.6-0.8-1.1-1.5-1.7-2.3c0.1-0.1,0.1-0.2,0.2-0.2l2.3-2.8l2.4-2.9c0.2-0.3,0.3-0.6,0.2-1v0
		c-0.1-0.4-0.3-0.6-0.5-0.7c-0.3-0.1-0.5,0-0.8,0.3c-2.5,3-5,6.1-7.5,9.1c-0.1,0.1-0.1,0.1-0.2,0.2L8.4,9.3C7,7.7,5.7,6,4.3,4.3
		C4.1,4.1,3.8,3.9,3.5,4l0,0C3.3,4.1,3.1,4.4,3,4.8c-0.1,0.4,0,0.7,0.3,1c1,1.2,2,2.4,2.9,3.6L8.2,11.7z"/>
</g>
</svg>
